<svg xmlns="http://www.w3.org/2000/svg" viewBox="0 0 755.89 778.12"><defs><linearGradient id="linear-gradient" y1="574.82" x2="755.89" y2="574.82" gradientTransform="matrix(1 0 0 -1 0 849.12)" gradientUnits="userSpaceOnUse"><stop offset="0" stop-color="#c3f6ee"/><stop offset=".38" stop-color="#c6ebfd"/></linearGradient><style>.cls-1{fill:#ecf2fa}.cls-2{fill:#8bbacc}.cls-3,.cls-4{fill:#274b5b}.cls-10,.cls-11,.cls-4{opacity:.2}.cls-10,.cls-11,.cls-19,.cls-20,.cls-4,.cls-5,.cls-9{isolation:isolate}.cls-12,.cls-19,.cls-20,.cls-5{fill:#fff}.cls-5{opacity:.3}.cls-13{opacity:.4}.cls-7{fill:#26c8bc}.cls-8{fill:#f6df9e}.cls-9{fill:#1b5a6e}.cls-19,.cls-9{opacity:.8}.cls-10{fill:#a7594e}.cls-11{fill:#f08778}.cls-14{fill:#426270}.cls-15{opacity:.9}.cls-20{opacity:.15}</style></defs><g id="Layer_2" data-name="Layer 2"><g id="Layer_1-2" data-name="Layer 1"><g id="Layer_1-2-2" data-name="Layer 1-2"><path class="cls-1" d="M289.21 520.18h127.5a26.44 26.44 0 01-26.44 26.44h-74.62a26.44 26.44 0 01-26.44-26.44z"/><path class="cls-2" d="M417.25 522.4a26.44 26.44 0 01-13.94 21.68 25.53 25.53 0 01-4.91 1.76l.09-.24a10.9 10.9 0 00-10-14.51l-96.22-2.75a26 26 0 01-1.18-6 15 15 0 002.13.15h33.62v2.35h7.05v-2.35h18c-.19.41-.4.82-.59 1.23l26.7-.02v-1.18h37.32a14.49 14.49 0 001.93-.12z"/><path class="cls-3" d="M306.25 523.71h2.35v21.15h-2.35z"/><path class="cls-4" d="M308.01 523.71h2.35v18.21h-2.35zm14.69 0h2.35v18.21h-2.35zm29.38 0h2.35v18.21h-2.35zm14.69 0h2.35v18.21h-2.35zm14.69 0h2.35v18.21h-2.35z"/><path class="cls-5" d="M376.76 523.71h2.35v18.21h-2.35zm-14.1 0h2.35v18.21h-2.35zm-14.69 0h2.35v18.21h-2.35zm-14.69 0h2.35v18.21h-2.35zm-14.69 0h2.35v18.21h-2.35zm-14.69 0h2.35v18.21h-2.35z"/><path class="cls-4" d="M337.39 523.71h2.35v18.21h-2.35z"/><path class="cls-3" d="M320.84 523.71h2.35v21.15h-2.35zm14.6 0h2.35v21.15h-2.35zm14.59 0h2.35v21.15h-2.35zm29.18 0h2.35v21.15h-2.35zm14.59 0h2.35v21.15h-2.35zm-29.19 0h2.35v21.15h-2.35z"/><path d="M745.61 324.52H601.72q-.28-4.11-.68-8.23h56.41a10.28 10.28 0 000-20.56H598c-2.91-14.14-7.53-27.38-14.63-38.57-13.91-21.92-35.62-32.82-57-35.1s-42.8 3.15-63.84 9c-28 7.83-60.95 14.88-82.06-11-12.49-15.34-17.47-40.47-13-62.37a159.19 159.19 0 014.38-15.89H446a10.28 10.28 0 000-20.56h-68.73a58 58 0 00.76-9.58 52.81 52.81 0 00-19.66-40.17C347.58 63 334.95 60 322.53 57.86 294.79 53 266.18 51.53 239.16 61c-25.57-27.59-61.58-36.92-93-23.87a60.89 60.89 0 00-23.31 16.52h61.3a10 10 0 010 20h-72c-4.62 15-4.58 32.52-4.35 49.07 0 1.86.05 3.72.08 5.58h29.02a10.28 10.28 0 110 20.56h-28.65l.16 11.16h67.27a10.28 10.28 0 010 20.56h-67c0 2.35.06 4.74.1 7.12.24 16.7.42 33.86-3.92 49.5C91.47 285.37 44 297 18.34 335.1h108a10.28 10.28 0 110 20.56H7.87q-1.4 3.74-2.55 7.64h76.35a10.28 10.28 0 110 20.56H1a138.46 138.46 0 007.76 65.62c17.44 45.45 58 68.49 96.08 67.77s74.42-21.15 108.59-43.82c25.82-17.15 52.85-36.3 81.59-33.59 29.31 2.76 54.4 27.66 80.92 44.62 43.19 27.62 93.5 34.67 140 19.63 20.56-6.65 40.94-18 56-37.92 14.61-19.39 22.91-45 27-72.27h39.37a10 10 0 100-20H601.3c.74-9.2 1.08-18.46 1.1-27.62v-1.18h143.21a10.28 10.28 0 000-20.56z" style="isolation:isolate" fill="url(#linear-gradient)" opacity=".4"/><path class="cls-7" d="M266.9 494.91s-48 59.78-54.51 143.61a3.68 3.68 0 01-7.17.87c-16.45-50.07-51.38-194.83 57.58-283.14"/><path class="cls-8" d="M211.68 643.5a3.64 3.64 0 001.43 1.93 3.67 3.67 0 01-5.54-1.93c-16.45-50.07-51.38-194.83 57.58-283.14l.1 3.33c-104.08 88.58-69.81 230.37-53.57 279.81z"/><path class="cls-9" d="M200.94 624.14c-.28-23.24 5.65-47.59 13.42-69.4 4-11.16 8.44-21.65 12.81-31a198.7 198.7 0 0018.58-93.49c-.86-18.64-1.56-39.55-1.56-58.17 8.61-10.66 5.68-11.62 17.44-21.15l4.11 138.66s-48 59.78-54.51 143.61a3.56 3.56 0 01-1.4 2.64"/><path class="cls-3" d="M200.78 545.44a2.06 2.06 0 112.06-2.06 2.06 2.06 0 01-2.06 2.06zm0-2.94a.88.88 0 10.88.88.88.88 0 00-.88-.87z"/><path class="cls-4" d="M200.78 547.21a3.82 3.82 0 113.82-3.82 3.82 3.82 0 01-3.82 3.82zm0-5.29a1.47 1.47 0 101.47 1.47 1.47 1.47 0 00-1.47-1.47z"/><path class="cls-3" d="M209 469.65a2.06 2.06 0 112.06-2.06 2.06 2.06 0 01-2.06 2.06zm0-2.94a.88.88 0 10.88.88.88.88 0 00-.88-.88z"/><path class="cls-4" d="M209 471.41a3.82 3.82 0 113.82-3.82 3.82 3.82 0 01-3.82 3.82zm0-5.29a1.47 1.47 0 101.47 1.47 1.47 1.47 0 00-1.47-1.47z"/><path class="cls-3" d="M497.5 469.65a2.06 2.06 0 112.06-2.06 2.06 2.06 0 01-2.06 2.06zm0-2.94a.88.88 0 10.88.88.88.88 0 00-.88-.88z"/><path class="cls-4" d="M497.5 471.41a3.82 3.82 0 113.82-3.82 3.82 3.82 0 01-3.82 3.82zm0-5.29a1.47 1.47 0 101.47 1.47 1.47 1.47 0 00-1.47-1.47z"/><path class="cls-3" d="M495.74 469.65a2.06 2.06 0 112.06-2.06 2.06 2.06 0 01-2.06 2.06zm0-2.94a.88.88 0 10.88.88.88.88 0 00-.88-.88z"/><path class="cls-4" d="M495.74 471.41a3.82 3.82 0 113.82-3.82 3.82 3.82 0 01-3.82 3.82zm0-5.29a1.47 1.47 0 101.47 1.47 1.47 1.47 0 00-1.47-1.47z"/><path class="cls-3" d="M218.71 409.72h2.35v192.72h-2.35z"/><path class="cls-4" d="M221.06 405.02h2.35v197.42h-2.35z"/><path class="cls-5" d="M216.36 409.72h2.35v192.72h-2.35z"/><path class="cls-3" d="M232.22 384.45h2.35v173.92h-2.35z"/><path class="cls-4" d="M234.57 384.45h2.35v173.92h-2.35z"/><path class="cls-5" d="M229.87 384.45h2.35v173.92h-2.35z"/><path class="cls-10" d="M474.25 703.51a47.63 47.63 0 01-47.55-47.63v-46.39h12.93v46.38a34.7 34.7 0 1057.17-26.44l8.37-9.85a47.63 47.63 0 01-27 83.76q-1.96.17-3.92.17z"/><path class="cls-11" d="M468.86 683.38a28.77 28.77 0 01-4.18-.31l1.88-12.79a15.41 15.41 0 10-7-27.6l-7.72-10.37a28.33 28.33 0 1117 51.06z"/><circle class="cls-11" cx="473.12" cy="593.04" r="9.4"/><path class="cls-12" d="M491.61 645.27a3.64 3.64 0 01-1.43 1.93 3.67 3.67 0 005.54-1.93c16.45-50.07 51.38-194.83-57.58-283.14l-.1 3.33c104.08 88.54 69.82 230.36 53.57 279.81z"/><path class="cls-7" d="M436.88 500.79s48 59.78 54.51 143.61a3.68 3.68 0 007.17.87C515 595.2 549.94 450.44 441 362.13"/><path class="cls-9" d="M502.85 630c.28-23.24-5.65-47.59-13.42-69.4-4-11.16-8.44-21.65-12.81-31A198.7 198.7 0 01458 436.16c.86-18.64 1.56-39.55 1.56-58.17-8.61-10.66-5.68-11.62-17.44-21.15L438 495.5s48 59.78 54.51 143.61a3.56 3.56 0 001.4 2.64"/><path class="cls-3" d="M502.79 546a2.06 2.06 0 112.06-2.06 2.06 2.06 0 01-2.06 2.06zm0-2.94a.88.88 0 10.88.88.88.88 0 00-.88-.85z"/><path class="cls-4" d="M502.79 547.8a3.82 3.82 0 113.82-3.82 3.82 3.82 0 01-3.82 3.82zm0-5.29a1.47 1.47 0 101.47 1.47 1.47 1.47 0 00-1.47-1.47z"/><path class="cls-3" d="M482.52 409.13h2.35v198.6h-2.35z"/><path class="cls-4" d="M480.17 408.54h2.35v182.73h-2.35z"/><path class="cls-5" d="M484.87 415.01h2.35v192.72h-2.35z"/><path class="cls-3" d="M469.01 389.74h2.35v173.92h-2.35z"/><path class="cls-4" d="M466.66 389.74h2.35v168.04h-2.35z"/><path class="cls-5" d="M471.36 389.74h2.35v173.92h-2.35z"/><path class="cls-3" d="M495.1 648.1a8.39 8.39 0 01-1-.06 8 8 0 01-7.1-7.41c-6.3-81.53-53.08-140.6-53.55-141.19l6.87-5.52c.5.62 12.45 15.6 25.32 41.14 11.55 22.91 25.93 58.83 29.84 101.29 8-25.12 19.6-71.56 16.92-122.19C509 450 484 398.58 438.21 361.44l5.55-6.85a202.23 202.23 0 0158.54 76.1c10.95 24.86 17.31 52.78 18.91 83 2.88 54.46-10.32 104.1-18.45 128.84a8 8 0 01-7.66 5.57z"/><path class="cls-11" d="M93.55 778.12H51.84a6.46 6.46 0 110-12.93h41.71a6.46 6.46 0 110 12.93z"/><path class="cls-10" d="M277.5 720.51a54 54 0 01-35.05-95.22l8.37 9.85a41.13 41.13 0 1067.77 31.34V564.83h12.93v101.65a54 54 0 01-54 54z"/><path class="cls-11" d="M376.44 745.24A30.26 30.26 0 01346.23 715V614.8h12.93V715a17.33 17.33 0 1028.56-13.21l8.37-9.85a30.26 30.26 0 01-17.15 53.22q-1.26.08-2.5.08zm-31.41-179.82h12.93v31.14h-12.93zm-64.19 129.13a28.68 28.68 0 01-4.18-.31l1.88-12.79a15.41 15.41 0 10-7-27.6l-7.72-10.37a28.33 28.33 0 1117 51.06z"/><path class="cls-11" d="M389.69 677.06a20.56 20.56 0 1120.56-20.56 20.59 20.59 0 01-20.56 20.56zm0-28.2a7.64 7.64 0 107.64 7.64 7.65 7.65 0 00-7.64-7.64zM288 624.77a20.56 20.56 0 1120.6-20.57 20.59 20.59 0 01-20.6 20.57zm0-28.2a7.64 7.64 0 107.64 7.64 7.65 7.65 0 00-7.64-7.65zm279.13 28.2a20.56 20.56 0 1120.56-20.56 20.59 20.59 0 01-20.56 20.56zm0-28.2a7.64 7.64 0 107.64 7.64 7.65 7.65 0 00-7.64-7.65z"/><circle class="cls-11" cx="164.65" cy="647.09" r="4.7"/><circle class="cls-11" cx="426.7" cy="727.59" r="4.7"/><path class="cls-10" d="M584.76 749.92h-12.93a34.71 34.71 0 00-34.67-34.67h-8.81v-12.93h8.81a47.65 47.65 0 0147.6 47.6z"/><path class="cls-11" d="M114.12 752.41h-12.93a93.67 93.67 0 0193.56-93.56h18.66v12.93h-18.65a80.73 80.73 0 00-80.64 80.63zM678 749.92h-12.88A100 100 0 00565.23 650h-22.78v-12.9h22.78A112.94 112.94 0 01678 749.92z"/><path class="cls-10" d="M177.58 749.92h-12.93a47.65 47.65 0 0147.59-47.59h8.81v12.93h-8.81a34.71 34.71 0 00-34.66 34.66z"/><path class="cls-11" d="M607.08 778.12H115.29a6.46 6.46 0 110-12.93h491.79a6.46 6.46 0 010 12.93zm-578.16 0a6.09 6.09 0 01-1.26-.13 6.78 6.78 0 01-1.21-.36 7.23 7.23 0 01-1.12-.59 6.85 6.85 0 01-1-.81 6.39 6.39 0 01-1.4-2.1 6.84 6.84 0 01-.36-1.21 6.24 6.24 0 010-2.53 6.84 6.84 0 01.36-1.21 7.27 7.27 0 01.59-1.12 6.47 6.47 0 011.79-1.79 7.23 7.23 0 011.12-.59 6.78 6.78 0 011.21-.36 6.31 6.31 0 012.53 0 6.79 6.79 0 011.21.36 7.24 7.24 0 011.12.59 6.47 6.47 0 011.79 1.79 7.24 7.24 0 01.59 1.12 7.41 7.41 0 01.37 1.21 6.53 6.53 0 010 2.53 7.41 7.41 0 01-.37 1.21 7.24 7.24 0 01-.59 1.12 6.41 6.41 0 01-.81 1 6.82 6.82 0 01-1 .81 7.24 7.24 0 01-1.12.59 6.79 6.79 0 01-1.21.36 6.09 6.09 0 01-1.23.11zm643.96 0h-41.71a6.46 6.46 0 110-12.93h41.71a6.46 6.46 0 010 12.93zm22.92 0a6.09 6.09 0 01-1.26-.13 6.78 6.78 0 01-1.21-.36 7.21 7.21 0 01-1.12-.59 6.8 6.8 0 01-1-.81 6.38 6.38 0 01-.81-1 7.24 7.24 0 01-.59-1.12 7.44 7.44 0 01-.37-1.21 6.53 6.53 0 010-2.53 7.44 7.44 0 01.37-1.21 7.24 7.24 0 01.59-1.12 6.47 6.47 0 011.79-1.79 7.21 7.21 0 011.12-.59 6.78 6.78 0 011.21-.36 6.31 6.31 0 012.53 0 6.78 6.78 0 011.21.36 7.22 7.22 0 011.12.59 6.47 6.47 0 011.79 1.79 7.29 7.29 0 01.59 1.12 6.8 6.8 0 01.36 1.21 6.24 6.24 0 010 2.53 6.8 6.8 0 01-.36 1.21 7.29 7.29 0 01-.59 1.12 6.44 6.44 0 01-.81 1 6.83 6.83 0 01-1 .81 7.22 7.22 0 01-1.12.59 6.78 6.78 0 01-1.21.36 6.09 6.09 0 01-1.23.13z"/><path class="cls-3" d="M208.1 647.51a8 8 0 01-7.64-5.57c-8.14-24.74-21.34-74.37-18.46-128.84 1.6-30.22 8-58.14 18.91-83a202.23 202.23 0 0158.54-76.1l5.55 6.85c-45.83 37.15-70.8 88.53-74.2 152.72-2.68 50.63 9 97.07 16.92 122.19 3.91-42.45 18.29-78.38 29.84-101.29 12.88-25.54 24.82-40.52 25.32-41.14l6.87 5.52c-.18.23-12 15.1-24.44 39.82-11.47 22.8-25.83 58.89-29.11 101.37a8 8 0 01-7.1 7.41 8.51 8.51 0 01-1 .06z"/><path class="cls-7" d="M362.27 9.5a13.07 13.07 0 00-19.58 0C314.48 41.43 235 144.12 235 287.65c0 140.49 30.47 203.58 42.35 222.83 2.54 4.11 8.07 6.76 14.1 6.76h122.07c6.06 0 11.58-2.63 14.1-6.76C439.5 491.23 470 428.14 470 287.65 470 144.12 390.49 41.43 362.27 9.5z"/><path class="cls-3" d="M350.91 128.28h2.35v387.79h-2.35z"/><path class="cls-4" d="M348.56 128.28h2.35v387.79h-2.35z"/><path class="cls-5" d="M353.26 128.28h2.35v387.79h-2.35z"/><path class="cls-1" d="M430.23 124.75h-158a517.9 517.9 0 0133.83-67.17q1.69-2.82 3.35-5.51C331.93 18.36 349.18 0 349.18 0s24 25.53 52.29 71.68l.41.68a625.778 625.778 0 0128.35 52.39z"/><path class="cls-2" d="M429.05 123.05l-8.64-1.24c-14.27-20.87-53.74-63.46-108.14-69.33 1-1.88 5-5.72 6-7.51 7.81-12.84 14.92-21.47 20.73-29.69a17 17 0 0127.56-.36A461.19 461.19 0 01400 66.39c.12.22 1.42.45 1.55.68 8.45 15.36 23.98 24.84 27.5 55.98z"/><path class="cls-12" d="M296 109.73a2.94 2.94 0 01-2.58-4.34c2.86-5.26 6-10.55 9.13-15.66 3-5 6.08-10.09 8.84-15.13a2.94 2.94 0 015.16 2.81c-2.81 5.16-5.94 10.34-9 15.35s-6.2 10.28-9 15.43a2.94 2.94 0 01-2.55 1.54z"/><g class="cls-13"><path class="cls-14" d="M381.81 231.06c3.78-6.12 6.46-11.31 6.87-11.13s-1.76 5.7-5.6 11.91-7.79 10.63-8.1 10.38 3.08-5.02 6.83-11.16z"/><ellipse class="cls-14" cx="387.95" cy="236.2" rx="8.69" ry=".75" transform="rotate(-59.33 387.95 236.2)"/><path class="cls-14" d="M383.3 235.13c5.52 2.23 10.13 3.77 10 4.18s-5-.51-10.58-2.79-9.77-5-9.57-5.32 4.62 1.72 10.15 3.93zm5.22-1.5c5 2.35 9.23 3.83 9.11 4.24s-4.62-.49-9.74-2.88-8.71-5.29-8.48-5.59 4.11 1.92 9.11 4.23z"/></g><path class="cls-8" d="M314.62 520.18h-21.43c-6.06 0-11.58-2.64-14.1-6.77-11.87-19.3-42.34-82.54-42.34-223.37 0-137.91 73-238.21 104-274.48-27.77 32.9-87.9 120-87.9 257.25l35.25-49.46c-.73 1.92-71.92 209 26.52 296.83z"/><path class="cls-12" d="M300.24 517.53h-5.88c-6.06 0-11.58-2.64-14.1-6.77-11.87-19.3-42.34-82.54-42.34-223.37 0-137.91 73-238.21 103.94-274.46-15.77 18.69-42.08 55-61.8 108-20.23 45.39-36.28 101.77-36.28 166.4 0 140.84 30.47 204.08 42.34 223.37 2.55 4.19 8.07 6.83 14.12 6.83z"/><path class="cls-9" d="M386.77 517.24h21.43c6.06 0 11.58-2.63 14.1-6.75 11.87-19.24 42.34-82.3 42.34-222.73 0-137.49-73-237.52-104-273.69 27.77 32.8 94.37 119.63 94.37 256.51l-30.51-49.32c.69 1.92 60.72 208.4-37.73 295.98z"/><g class="cls-15"><path class="cls-12" d="M277.61 171.19a117.93 117.93 0 013.61-11.6 86.92 86.92 0 014-9.11c2.59-5 4.83-7.85 5.76-7.46s.48 3.91-.79 9.28c-.63 2.69-1.43 5.88-2.35 9.35L284.87 173 282 184.43c-.86 3.53-1.67 6.67-2.39 9.34-1.45 5.33-2.69 8.64-3.73 8.54s-1.65-3.63-1.52-9.3a86.85 86.85 0 01.86-9.89 117.92 117.92 0 012.39-11.93z"/></g><g class="cls-15"><ellipse class="cls-12" cx="271.34" cy="216.19" rx="8.81" ry="3.75" transform="rotate(-79.77 271.336 216.194)"/></g><g opacity=".2"><path class="cls-14" d="M334.35 36.72c4.87-3.53 9.4-6.6 12.72-8.71s5.46-3.33 5.58-3.14-1.81 1.67-5 4l-12.44 9L322.8 47c-3.2 2.3-5.22 3.68-5.35 3.53s1.66-1.83 4.7-4.35 7.33-5.91 12.2-9.46z"/><path class="cls-14" d="M336.15 42.44c10.71-4.11 19.34-7.56 19.51-7.17.08.19-2 1.3-5.39 2.88s-8.23 3.63-13.58 5.69-10.31 3.75-13.91 4.84-5.88 1.65-5.94 1.46c-.15-.4 8.61-3.59 19.31-7.7z"/></g><path class="cls-3" d="M341.8 195.55a2.06 2.06 0 112.06-2.06 2.06 2.06 0 01-2.06 2.06zm0-2.94a.88.88 0 10.88.88.88.88 0 00-.88-.88z"/><path class="cls-4" d="M341.8 197.31a3.82 3.82 0 113.82-3.82 3.82 3.82 0 01-3.82 3.82zm0-5.29a1.47 1.47 0 101.47 1.47 1.47 1.47 0 00-1.47-1.49z"/><path class="cls-3" d="M341.8 155.3a2.06 2.06 0 112.06-2.06 2.06 2.06 0 01-2.06 2.06zm0-2.94a.88.88 0 10.88.88.88.88 0 00-.88-.87z"/><path class="cls-4" d="M341.8 157.07a3.82 3.82 0 113.82-3.82 3.82 3.82 0 01-3.82 3.82zm0-5.29a1.47 1.47 0 101.47 1.47 1.47 1.47 0 00-1.47-1.47z"/><path class="cls-3" d="M362.36 168.23a2.06 2.06 0 112.06-2.06 2.06 2.06 0 01-2.06 2.06zm0-2.94a.88.88 0 10.88.88.88.88 0 00-.88-.88z"/><path class="cls-4" d="M362.36 170a3.82 3.82 0 113.82-3.82 3.82 3.82 0 01-3.82 3.82zm0-5.29a1.47 1.47 0 101.47 1.47 1.47 1.47 0 00-1.47-1.47z"/><path class="cls-3" d="M362.36 314.53a2.06 2.06 0 112.06-2.06 2.06 2.06 0 01-2.06 2.06zm0-2.94a.88.88 0 10.88.88.88.88 0 00-.88-.87z"/><path class="cls-4" d="M362.36 316.3a3.82 3.82 0 113.82-3.82 3.82 3.82 0 01-3.82 3.82zm0-5.29a1.47 1.47 0 101.47 1.47 1.47 1.47 0 00-1.47-1.48z"/><path class="cls-3" d="M363 344.5a2.06 2.06 0 112.06-2.06 2.06 2.06 0 01-2.06 2.06zm0-2.94a.88.88 0 10.88.88.88.88 0 00-.88-.88z"/><path class="cls-4" d="M363 346.26a3.82 3.82 0 113.82-3.82 3.82 3.82 0 01-3.82 3.82zm0-5.29a1.47 1.47 0 101.47 1.47A1.47 1.47 0 00363 341z"/><path class="cls-3" d="M340 306.31a2.06 2.06 0 112.06-2.06 2.06 2.06 0 01-2.06 2.06zm0-2.94a.88.88 0 10.88.88.88.88 0 00-.88-.88z"/><path class="cls-4" d="M340 308.07a3.82 3.82 0 113.82-3.82 3.82 3.82 0 01-3.82 3.82zm0-5.29a1.47 1.47 0 101.47 1.47 1.47 1.47 0 00-1.47-1.47z"/><path class="cls-3" d="M340 336.27a2.06 2.06 0 112.06-2.06 2.06 2.06 0 01-2.06 2.06zm0-2.94a.88.88 0 10.88.88.88.88 0 00-.88-.87z"/><path class="cls-4" d="M340 338a3.82 3.82 0 113.82-3.82A3.82 3.82 0 01340 338zm0-5.29a1.47 1.47 0 101.47 1.47 1.47 1.47 0 00-1.47-1.43z"/><path class="cls-3" d="M341.8 235.8a2.06 2.06 0 112.06-2.06 2.06 2.06 0 01-2.06 2.06zm0-2.94a.88.88 0 10.88.88.88.88 0 00-.88-.88z"/><path class="cls-4" d="M341.8 237.56a3.82 3.82 0 113.82-3.82 3.82 3.82 0 01-3.82 3.82zm0-5.29a1.47 1.47 0 101.47 1.47 1.47 1.47 0 00-1.47-1.47z"/><path class="cls-3" d="M388.8 113a2.06 2.06 0 112.06-2.06 2.06 2.06 0 01-2.06 2.06zm0-2.94a.88.88 0 10.88.88.88.88 0 00-.88-.88z"/><path class="cls-4" d="M388.8 114.76a3.82 3.82 0 113.82-3.82 3.82 3.82 0 01-3.82 3.82zm0-5.29a1.47 1.47 0 101.47 1.47 1.47 1.47 0 00-1.47-1.47z"/><path class="cls-3" d="M314.77 113a2.06 2.06 0 112.06-2.06 2.06 2.06 0 01-2.06 2.06zm0-2.94a.88.88 0 10.88.88.88.88 0 00-.88-.88z"/><path class="cls-4" d="M314.77 114.76a3.82 3.82 0 113.82-3.82 3.82 3.82 0 01-3.82 3.82zm0-5.29a1.47 1.47 0 101.47 1.47 1.47 1.47 0 00-1.47-1.47z"/><path class="cls-3" d="M351.79 113a2.06 2.06 0 112.06-2.06 2.06 2.06 0 01-2.06 2.06zm0-2.94a.88.88 0 10.88.88.88.88 0 00-.88-.88z"/><path class="cls-4" d="M351.79 114.76a3.82 3.82 0 113.82-3.82 3.82 3.82 0 01-3.82 3.82zm0-5.29a1.47 1.47 0 101.47 1.47 1.47 1.47 0 00-1.47-1.47z"/><path class="cls-3" d="M341.8 380.93a2.06 2.06 0 112.06-2.06 2.06 2.06 0 01-2.06 2.06zm0-2.94a.88.88 0 10.88.88.88.88 0 00-.88-.87z"/><path class="cls-4" d="M341.8 382.69a3.82 3.82 0 113.82-3.82 3.82 3.82 0 01-3.82 3.82zm0-5.29a1.47 1.47 0 101.47 1.47 1.47 1.47 0 00-1.47-1.47z"/><path class="cls-3" d="M341.8 424a2.06 2.06 0 112.06-2.06 2.06 2.06 0 01-2.06 2.06zm0-2.94a.88.88 0 10.88.88.88.88 0 00-.88-.86z"/><path class="cls-4" d="M341.8 425.78a3.82 3.82 0 113.82-3.82 3.82 3.82 0 01-3.82 3.82zm0-5.29a1.47 1.47 0 101.47 1.47 1.47 1.47 0 00-1.47-1.47z"/><path class="cls-3" d="M341.8 467.11a2.06 2.06 0 112.06-2.06 2.06 2.06 0 01-2.06 2.06zm0-2.94a.88.88 0 10.88.88.88.88 0 00-.88-.88z"/><path class="cls-4" d="M341.8 468.87a3.82 3.82 0 113.82-3.82 3.82 3.82 0 01-3.82 3.82zm0-5.29a1.47 1.47 0 101.47 1.47 1.47 1.47 0 00-1.47-1.47z"/><path class="cls-3" d="M341.8 510.19a2.06 2.06 0 112.06-2.06 2.06 2.06 0 01-2.06 2.06zm0-2.94a.88.88 0 10.88.88.88.88 0 00-.88-.88z"/><path class="cls-4" d="M341.8 512a3.82 3.82 0 113.82-3.82 3.82 3.82 0 01-3.82 3.82zm0-5.29a1.47 1.47 0 101.47 1.47 1.47 1.47 0 00-1.47-1.51z"/><circle cx="355.31" cy="245.49" r="49.65" style="isolation:isolate" fill="#5c7869" opacity=".6"/><circle cx="355.9" cy="227.28" r="49.65" fill="#94e0f7"/><path class="cls-4" d="M355.31 274a43.19 43.19 0 1143.19-43.19A43.23 43.23 0 01355.31 274zm0-83.43a40.25 40.25 0 1040.25 40.25 40.29 40.29 0 00-40.25-40.26z"/><path class="cls-12" d="M372.51 183l-28.33 95.15a49.4 49.4 0 01-19.58-10.41L350.45 181a49.82 49.82 0 0122.06 2zm15.77 8.61l-26.21 88a48.54 48.54 0 01-5 .25 49.51 49.51 0 01-6-.36L379 185.67a49.66 49.66 0 019.28 5.94z"/><path class="cls-19" d="M320.35 241.28a1.18 1.18 0 01-1.16-1 47.59 47.59 0 015.79-31.2c3.08-5.28 6.7-8.45 10.77-9.4a1.18 1.18 0 11.54 2.29c-3.41.8-6.53 3.6-9.27 8.3a45.24 45.24 0 00-5.5 29.65 1.17 1.17 0 01-1 1.34z"/><path class="cls-3" d="M389.39 234a2.06 2.06 0 112.06-2.06 2.06 2.06 0 01-2.06 2.06zm0-2.94a.88.88 0 10.88.88.88.88 0 00-.88-.84z"/><path class="cls-4" d="M389.39 235.8a3.82 3.82 0 113.82-3.82 3.82 3.82 0 01-3.82 3.82zm0-5.29a1.47 1.47 0 101.47 1.47 1.47 1.47 0 00-1.47-1.47z"/><path class="cls-3" d="M355.31 286.62a55.82 55.82 0 1155.82-55.82 55.88 55.88 0 01-55.82 55.82zm0-99.3a43.48 43.48 0 1043.48 43.48 43.53 43.53 0 00-43.48-43.47z"/><path class="cls-1" d="M323.81 514.89v-85.74a114.93 114.93 0 0130.59-78.22 115 115 0 0130 77.62v86.23"/><path class="cls-12" d="M358.55 362.4a111.92 111.92 0 00-27 72.94v84.26h-7.05v-84.26a111.9 111.9 0 0130.59-76.88q1.77 1.94 3.46 3.94z"/><path class="cls-2" d="M378.52 433.68v84.74l-24.32.05c22.63-45.48 15.45-106.76 10.86-138a111.88 111.88 0 0113.46 53.21z"/><g class="cls-13"><path class="cls-14" d="M300.14 362.68c3.78-6.12 6.46-11.31 6.87-11.13s-1.76 5.7-5.6 11.91-7.79 10.63-8.1 10.38 3.08-5.03 6.83-11.16z"/><ellipse class="cls-14" cx="305.49" cy="366.18" rx="8.69" ry=".75" transform="rotate(-59.56 305.488 366.181)"/><path class="cls-14" d="M301.63 366.74c5.52 2.23 10.13 3.77 10 4.18s-5-.51-10.58-2.79-9.77-5-9.57-5.32 4.62 1.72 10.15 3.93zm5.22-1.49c5 2.35 9.23 3.83 9.11 4.24s-4.62-.49-9.74-2.88-8.71-5.29-8.48-5.59 4.11 1.92 9.11 4.23z"/></g><path class="cls-3" d="M342.39 408.54a2.06 2.06 0 112.06-2.06 2.06 2.06 0 01-2.06 2.06zm0-2.94a.88.88 0 10.88.88.88.88 0 00-.88-.87z"/><path class="cls-4" d="M342.39 410.31a3.82 3.82 0 113.82-3.82 3.82 3.82 0 01-3.82 3.82zm0-5.29a1.47 1.47 0 101.47 1.47 1.47 1.47 0 00-1.47-1.49z"/><path class="cls-3" d="M342.39 494.33a2.06 2.06 0 112.06-2.06 2.06 2.06 0 01-2.06 2.06zm0-2.94a.88.88 0 10.88.88.88.88 0 00-.88-.88z"/><path class="cls-4" d="M342.39 496.09a3.82 3.82 0 113.82-3.82 3.82 3.82 0 01-3.82 3.82zm0-5.29a1.47 1.47 0 101.47 1.47 1.47 1.47 0 00-1.47-1.47z"/><path class="cls-3" d="M342.39 451.44a2.06 2.06 0 112.06-2.06 2.06 2.06 0 01-2.06 2.06zm0-2.94a.88.88 0 10.88.88.88.88 0 00-.88-.88z"/><path class="cls-4" d="M342.39 453.2a3.82 3.82 0 113.82-3.82 3.82 3.82 0 01-3.82 3.82zm0-5.29a1.47 1.47 0 101.47 1.47 1.47 1.47 0 00-1.47-1.47z"/><path class="cls-3" d="M361.19 408.54a2.06 2.06 0 112.06-2.06 2.06 2.06 0 01-2.06 2.06zm0-2.94a.88.88 0 10.88.88.88.88 0 00-.88-.87z"/><path class="cls-4" d="M361.19 410.31a3.82 3.82 0 113.82-3.82 3.82 3.82 0 01-3.82 3.82zm0-5.29a1.47 1.47 0 101.47 1.47 1.47 1.47 0 00-1.47-1.49z"/><path class="cls-3" d="M361.19 494.33a2.06 2.06 0 112.06-2.06 2.06 2.06 0 01-2.06 2.06zm0-2.94a.88.88 0 10.88.88.88.88 0 00-.88-.88z"/><path class="cls-4" d="M361.19 496.09a3.82 3.82 0 113.82-3.82 3.82 3.82 0 01-3.82 3.82zm0-5.29a1.47 1.47 0 101.47 1.47 1.47 1.47 0 00-1.47-1.47z"/><path class="cls-3" d="M361.19 451.44a2.06 2.06 0 112.06-2.06 2.06 2.06 0 01-2.06 2.06zm0-2.94a.88.88 0 10.88.88.88.88 0 00-.88-.88z"/><path class="cls-4" d="M361.19 453.2a3.82 3.82 0 113.82-3.82 3.82 3.82 0 01-3.82 3.82zm0-5.29a1.47 1.47 0 101.47 1.47 1.47 1.47 0 00-1.47-1.47z"/><path class="cls-3" d="M350.91 356.84h2.35v159.23h-2.35z"/><path class="cls-4" d="M349.14 362.71h2.35V514.3h-2.35z"/><path class="cls-19" d="M353.84 362.71h2.35v151h-2.35z"/><path class="cls-3" d="M389.1 551.61h-74.62a30.88 30.88 0 01-30.85-30.85v-4.41h136.32v4.41a30.88 30.88 0 01-30.85 30.85zm-96.21-26.44a22.07 22.07 0 0021.59 17.63h74.62a22.07 22.07 0 0021.59-17.63z"/><path class="cls-20" d="M414.47 158.92a15.91 15.91 0 0119.19 11.73l3.78 15.66a15.91 15.91 0 01-11.73 19.19 15.91 15.91 0 01-19.19-11.73l-3.78-15.66a15.91 15.91 0 0111.73-19.19z"/><path class="cls-20" d="M400.35 152a15.91 15.91 0 0122.09 4.25 15.91 15.91 0 01-4.25 22.09 15.91 15.91 0 01-22.09-4.25 15.91 15.91 0 014.25-22.09z"/><g class="cls-13"><path class="cls-14" d="M413.54 272.78c3.78-6.12 6.46-11.31 6.87-11.13s-1.76 5.7-5.6 11.91-7.79 10.63-8.1 10.38 3.08-5.02 6.83-11.16z"/><ellipse class="cls-14" cx="418.88" cy="276.29" rx="8.69" ry=".75" transform="rotate(-59.56 418.88 276.283)"/><path class="cls-14" d="M415 276.85c5.52 2.23 10.13 3.77 10 4.18s-5-.51-10.58-2.79-9.77-5-9.57-5.32 4.65 1.71 10.15 3.93zm5.25-1.5c5 2.35 9.23 3.83 9.11 4.24s-4.62-.49-9.74-2.88-8.71-5.29-8.48-5.59 4.11 1.88 9.11 4.23z"/></g><g class="cls-13"><path class="cls-14" d="M365.95 91.81c3.78-6.12 6.46-11.31 6.87-11.13s-1.76 5.7-5.6 11.91-7.79 10.63-8.1 10.38 3.07-5.02 6.83-11.16z"/><ellipse class="cls-14" cx="371.29" cy="95.33" rx="8.69" ry=".75" transform="rotate(-59.56 371.286 95.33)"/><path class="cls-14" d="M367.43 95.88c5.52 2.23 10.13 3.77 10 4.18s-5-.51-10.58-2.79-9.77-5-9.57-5.32 4.63 1.71 10.15 3.93zm5.23-1.5c5 2.35 9.23 3.83 9.11 4.24s-4.62-.49-9.74-2.88-8.71-5.29-8.48-5.59 4.11 1.92 9.11 4.23z"/></g><path class="cls-2" d="M274.23 119.76h146.89v2.94H274.23z"/><path class="cls-3" d="M434.17 130.52h-164.1l2-8.81h161.1l1 8.81z"/><path class="cls-3" d="M412.35 521.65H290.24c-7.63 0-14.47-3.39-17.85-8.85-12.93-21-43-84.9-43-225.3 0-137.6 72.49-238.35 103.66-275.28a23.89 23.89 0 0136.52 0C400.73 49.15 473.23 149.9 473.2 287.5c0 140.37-30.07 204.32-43 225.3-3.33 5.45-10.2 8.85-17.85 8.85zm-61.07-509.1a15 15 0 00-9.7 3.55 15.11 15.11 0 00-1.8 1.8C309.24 54.09 238.2 152.8 238.2 287.5c0 60.21 5.58 112.66 16.58 155.9 9.07 35.64 19.62 55.88 25.11 64.77 1.72 2.79 5.89 4.66 10.35 4.66h122.11c4.49 0 8.64-1.87 10.34-4.65 5.49-8.91 16-29.16 25.12-64.79 11-43.24 16.58-95.69 16.58-155.9 0-134.69-71-233.4-101.56-269.59a15 15 0 00-10.25-5.3q-.65-.05-1.3-.05z"/><path class="cls-3" d="M325.86 516.18h-8.81v-84.26A115.85 115.85 0 01348.84 352l3.23-3.41 3.2 3.43a115.93 115.93 0 0131.22 79.29v84.74h-8.81v-84.72a107.11 107.11 0 00-25.68-69.7 107 107 0 00-26.16 70.28zm171.64-47.71a2.06 2.06 0 112.06-2.06 2.06 2.06 0 01-2.06 2.06zm0-2.94a.88.88 0 10.88.88.88.88 0 00-.88-.87z"/><path class="cls-4" d="M497.5 470.24a3.82 3.82 0 113.82-3.82 3.82 3.82 0 01-3.82 3.82zm0-5.29a1.47 1.47 0 101.47 1.47 1.47 1.47 0 00-1.47-1.47z"/></g></g></g></svg>